<svg xmlns="http://www.w3.org/2000/svg" xmlns:xlink="http://www.w3.org/1999/xlink" version="1.1" x="0px" y="0px" viewBox="0 0 100 125" style="enable-background:new 0 0 100 100;" xml:space="preserve">
    <g>
        <path d="M29,76c1.1,0,2-0.9,2-2V53.2l39.9,28c0.3,0.2,0.7,0.4,1.1,0.4c0.3,0,0.6-0.1,0.9-0.2c0.7-0.3,1.1-1,1.1-1.8v-59   c0-0.7-0.4-1.4-1.1-1.8c-0.7-0.3-1.5-0.3-2.1,0.1L31,46.8V26c0-1.1-0.9-2-2-2s-2,0.9-2,2v48C27,75.1,27.9,76,29,76z M70,24.3v51.3   L33.4,50L70,24.3z" />
    </g>
</svg>