<svg xmlns="http://www.w3.org/2000/svg" xmlns:xlink="http://www.w3.org/1999/xlink" xml:space="preserve" version="1.1" style="shape-rendering:geometricPrecision;text-rendering:geometricPrecision;image-rendering:optimizeQuality;" viewBox="0 0 847 1058.75" x="0px" y="0px" fill-rule="evenodd" clip-rule="evenodd"><defs><style type="text/css">
   
    .fil0 {fill:black}
   
  </style></defs><g><path class="fil0" d="M132 810c0,-258 0,-515 0,-773 0,-13 11,-24 24,-24 26,0 51,0 76,0 13,0 24,11 24,24 0,258 0,515 0,773 0,13 -11,24 -24,24 -25,0 -50,0 -76,0 -13,0 -24,-11 -24,-24zm459 0c0,-258 0,-515 0,-773 0,-13 11,-24 24,-24 25,0 50,0 75,0 14,0 25,11 25,24 0,258 0,515 0,773 0,13 -11,24 -25,24 -25,0 -50,0 -75,0 -13,0 -24,-11 -24,-24z"/></g><text x="0" y="862" fill="#000000" font-size="5px" font-weight="bold" font-family="'Helvetica Neue', Helvetica, Arial-Unicode, Arial, Sans-serif">Created by amantaka</text><text x="0" y="867" fill="#000000" font-size="5px" font-weight="bold" font-family="'Helvetica Neue', Helvetica, Arial-Unicode, Arial, Sans-serif">from the Noun Project</text></svg>