<svg id="Layer_1" enable-background="new 0 0 512 512" height="512" viewBox="0 0 512 512" width="512" xmlns="http://www.w3.org/2000/svg"><g><g><g><g id="XMLID_1353_"><g id="XMLID_1354_"><g id="XMLID_1355_"><g id="XMLID_1356_"><g id="XMLID_1357_"><g id="XMLID_1358_"><g id="XMLID_1359_"><g id="XMLID_1360_"><g id="XMLID_1361_"><g id="XMLID_1463_"><g id="XMLID_1464_"><g id="XMLID_1466_"><g id="XMLID_1467_"><g id="XMLID_1468_"><g id="XMLID_1469_"><path d="m0 256c0-141.385 114.615-256 256-256s256 114.615 256 256c0 56.499-18.303 108.723-49.302 151.066-46.575 63.619-121.812 51.754-206.698 51.754s-160.123 11.865-206.698-51.754c-31-42.343-49.302-94.567-49.302-151.066z" fill="#4d5ca9"/></g></g></g></g></g></g></g></g></g></g></g></g></g></g></g></g></g><path d="m510.55 228.702-162.245-162.245-268.705 369.799c45.917 30.252 108.026 22.565 176.4 22.565 84.886 0 160.123 11.864 206.698-51.754 31-42.345 49.302-94.568 49.302-151.067 0-9.223-.499-18.328-1.45-27.298z" fill="#354993"/><path d="m385.54 332.29h-73.51v.002h-112.06v-.002h-73.5c-41.82 0-75.88 33.26-77.16 74.77 46.57 63.62 121.81 104.94 206.69 104.94s160.12-41.32 206.69-104.94c-1.27-41.52-35.32-74.77-77.15-74.77z" fill="#ffd628"/><path d="m462.69 407.06c-46.57 63.62-121.81 104.94-206.69 104.94v-179.71h129.54c41.83 0 75.88 33.25 77.15 74.77z" fill="#fcb42d"/><path d="m349.62 151.149c-3.955-60.043-52.523-82.233-93.62-82.233s-89.665 22.19-93.62 82.233c-10.628 2.055-18.177 15.995-16.988 27.265l1.822 25.648c1.247 11.835 11.65 20.476 23.115 19.19l1.977-.214c23.485 63.063 60.316 69.638 83.694 73.33 23.378-3.692 60.209-10.267 83.694-73.33l1.977.214c11.465 1.286 21.868-7.354 23.115-19.19l1.822-25.648c1.189-11.27-6.36-25.21-16.988-27.265z" fill="#fcba7c"/><path d="m366.609 178.414-1.822 25.648c-1.247 11.835-11.65 20.476-23.115 19.19l-1.977-.214c-8.027 21.528-17.602 36.48-27.664 46.971-19.404 20.242-40.629 23.924-56.03 26.359v-227.452c41.097 0 89.665 22.19 93.62 82.233 10.627 2.055 18.176 15.995 16.988 27.265z" fill="#efa36a"/><path d="m256 47.667s-96.776 8.224-97.667 91.333h97.667 97.667c-.891-83.109-97.667-91.333-97.667-91.333z" fill="#634c39"/><path d="m353.67 139h-97.67v-91.33s96.78 8.22 97.67 91.33z" fill="#442e1f"/><path d="m255.976 27.667c-109.21 0-152.264 116.911-138.263 221.92 14.001 105.01 56.705 122.254 138.263 122.254s125.311-17.244 139.313-122.254c14.001-105.01-30.103-221.92-139.313-221.92zm0 256.333c-64.756 0-84.708-46.886-84.708-102.891s20.396-110.127 84.708-110.127 84.708 54.122 84.708 110.127-19.952 102.891-84.708 102.891z" fill="#fff5cc"/><path d="m256 27.67v43.31c48.835 0 67.64 29.79 78.8 68.02 3.9 13.31 5.88 27.65 5.88 42.11 0 55.99-19.95 102.88-84.68 102.89v87.841c81.54-.01 125.29-17.251 139.29-122.251s-30.09-221.91-139.29-221.92z" fill="#fde997"/></g></svg>